<?xml version="1.0" standalone="no"?>
<!DOCTYPE svg PUBLIC "-//W3C//DTD SVG 20010904//EN"
 "http://www.w3.org/TR/2001/REC-SVG-20010904/DTD/svg10.dtd">
<svg version="1.0" xmlns="http://www.w3.org/2000/svg"
 width="500.000000pt" height="500.000000pt" viewBox="0 0 500.000000 500.000000"
 preserveAspectRatio="xMidYMid meet">

<g transform="translate(0.000000,500.000000) scale(0.100000,-0.100000)"
fill="#000000" stroke="none">
<path d="M0 2500 l0 -2500 2500 0 2500 0 0 2500 0 2500 -2500 0 -2500 0 0
-2500z m2477 1100 c24 -14 36 -32 47 -71 9 -29 16 -61 16 -71 0 -17 18 -18
355 -18 250 0 361 3 374 11 10 7 30 9 45 5 23 -6 27 -11 24 -38 -4 -42 -28
-56 -65 -38 -38 19 -6 18 -401 19 l-352 1 -10 23 c-5 12 -16 47 -24 78 -18 66
-39 79 -124 79 -87 0 -103 -13 -127 -99 -20 -74 -21 -75 -67 -94 l-48 -19 -61
36 c-33 20 -69 36 -80 36 -11 0 -47 -25 -80 -57 -69 -66 -73 -84 -29 -155 33
-54 37 -82 16 -133 -15 -34 -27 -40 -124 -60 -50 -10 -63 -39 -59 -128 2 -42
6 -79 9 -82 3 -4 32 -13 65 -21 75 -20 100 -36 118 -80 23 -55 19 -95 -15
-147 -16 -26 -30 -58 -30 -70 0 -25 87 -117 111 -117 9 0 43 16 75 35 67 41
77 42 138 16 54 -24 70 -47 87 -124 14 -67 28 -77 109 -77 61 0 84 20 100 85
16 69 34 93 86 116 61 26 70 25 137 -16 32 -19 65 -35 73 -35 21 0 103 79 110
106 4 16 -4 39 -25 74 -17 28 -31 55 -31 60 0 12 -14 11 215 10 146 -1 184 2
200 14 29 22 52 19 70 -8 23 -34 5 -66 -35 -66 -16 0 -32 5 -35 10 -7 12 -345
14 -345 2 0 -5 7 -17 15 -28 8 -10 15 -37 15 -58 0 -35 -7 -46 -58 -98 -72
-72 -99 -75 -186 -23 l-59 36 -46 -23 c-43 -22 -46 -26 -61 -85 -23 -96 -33
-103 -141 -103 -49 0 -99 4 -109 10 -18 10 -28 33 -50 118 -9 37 -17 46 -52
62 -45 20 -53 19 -119 -22 -71 -43 -100 -38 -169 28 -78 74 -83 97 -36 175 40
68 42 80 18 129 -15 31 -24 37 -80 50 -35 8 -74 25 -88 37 -22 20 -24 29 -24
110 0 118 16 146 97 168 32 9 64 18 71 20 7 3 17 16 24 30 10 23 8 34 -20 84
-20 37 -32 73 -32 96 0 34 8 46 68 107 62 61 73 68 108 68 27 0 55 -10 87 -30
26 -16 56 -30 65 -30 33 0 60 29 67 72 17 101 52 127 170 128 62 0 87 -4 112
-20z m0 -335 c28 -8 77 -33 109 -54 l58 -39 171 0 c131 -1 179 3 200 14 38 20
52 18 70 -10 23 -34 5 -66 -35 -66 -16 0 -32 5 -35 10 -4 6 -82 10 -201 10
l-194 0 -44 34 c-67 51 -129 71 -216 71 -65 0 -85 -5 -142 -33 -77 -38 -130
-92 -166 -171 -35 -75 -37 -192 -5 -263 62 -137 173 -209 320 -209 100 0 175
34 248 113 54 58 69 91 92 203 l8 40 220 3 c126 1 224 7 229 12 15 15 52 12
66 -5 17 -20 5 -62 -21 -70 -11 -4 -30 0 -42 8 -17 10 -69 14 -219 16 l-196 2
-12 -58 c-43 -206 -237 -341 -438 -304 -134 25 -227 97 -286 220 -28 60 -31
75 -31 161 0 82 4 103 27 152 47 100 138 181 241 213 57 18 163 18 224 0z
m-921 -1326 c55 -26 84 -72 84 -133 0 -80 -43 -135 -121 -156 -146 -40 -259
136 -162 251 51 60 125 74 199 38z m1091 15 c16 -3 40 -14 53 -24 l25 -19 -24
-25 c-21 -22 -27 -24 -40 -12 -68 58 -169 -13 -141 -99 20 -61 87 -85 139 -49
22 16 24 15 44 -5 l22 -22 -23 -19 c-56 -46 -147 -46 -205 0 -36 28 -61 99
-52 147 17 95 101 147 202 127z m1040 -144 c35 -80 63 -148 63 -152 0 -5 -15
-8 -34 -8 -30 0 -36 4 -46 35 l-12 35 -64 0 c-63 0 -64 0 -78 -35 -13 -30 -20
-35 -49 -35 l-35 0 66 155 c66 156 66 156 97 153 29 -3 33 -10 92 -148z m357
136 c44 -18 51 -31 30 -59 -18 -23 -18 -23 -55 -4 -87 43 -161 -42 -114 -132
22 -44 71 -54 124 -26 26 13 30 13 46 -5 17 -19 17 -21 0 -40 -10 -11 -36 -25
-57 -30 -101 -28 -198 46 -198 150 0 115 116 191 224 146z m-3163 -25 c40 -41
41 -98 1 -142 -24 -27 -37 -33 -85 -37 l-57 -4 0 -44 c0 -44 0 -44 -35 -44
l-35 0 0 150 0 150 91 0 c87 0 92 -1 120 -29z m319 14 c54 -28 60 -116 10
-158 l-27 -23 24 -35 c48 -68 48 -69 4 -69 -36 0 -41 4 -71 50 -24 37 -38 50
-56 50 -22 0 -24 -4 -24 -50 l0 -50 -35 0 -35 0 0 150 0 150 90 0 c61 0 100
-5 120 -15z m738 -5 c97 -59 95 -201 -4 -257 -32 -18 -55 -23 -121 -23 l-83 0
0 150 0 150 88 0 c69 0 94 -4 120 -20z m222 -78 c0 -114 12 -142 62 -142 58 0
68 20 68 137 l0 103 35 0 35 0 0 -100 c0 -112 -14 -159 -54 -185 -31 -21 -101
-24 -143 -6 -54 22 -66 52 -71 179 l-5 112 37 0 36 0 0 -98z m880 68 c0 -29
-1 -30 -51 -30 l-50 0 3 -120 3 -120 -32 0 -33 0 0 120 0 120 -50 0 c-49 0
-50 1 -50 30 l0 30 130 0 130 0 0 -30z m301 1 c43 -44 38 -111 -13 -152 -20
-16 -20 -17 17 -67 l37 -52 -41 0 c-38 0 -43 3 -73 50 -27 41 -38 50 -58 48
-22 -3 -25 -8 -28 -50 -3 -46 -5 -48 -33 -48 l-29 0 0 150 0 150 96 0 c92 0
97 -1 125 -29z m909 -33 l1 -63 57 63 c51 55 61 62 95 62 20 0 37 -3 37 -7 0
-4 -25 -33 -55 -63 l-55 -56 60 -79 c33 -44 60 -83 60 -87 0 -5 -17 -8 -37 -8
-34 0 -42 6 -78 56 -22 31 -43 58 -48 61 -19 12 -37 -21 -37 -68 l0 -49 -35 0
-35 0 0 150 0 150 35 0 35 0 0 -62z"/>
<path d="M1444 1886 c-59 -26 -69 -115 -17 -156 59 -46 143 -8 143 65 0 49
-15 74 -55 91 -40 16 -33 16 -71 0z"/>
<path d="M3575 1831 c-21 -47 -18 -54 23 -49 l30 3 -17 43 -17 44 -19 -41z"/>
<path d="M740 1845 c0 -44 1 -45 31 -45 42 0 69 17 69 43 0 33 -19 47 -62 47
l-38 0 0 -45z"/>
<path d="M1060 1850 l0 -40 50 0 c57 0 80 23 60 60 -8 16 -21 20 -60 20 l-50
0 0 -40z"/>
<path d="M1800 1800 l0 -90 41 0 c31 0 47 6 70 29 32 33 37 67 14 110 -17 33
-33 41 -86 41 l-39 0 0 -90z"/>
<path d="M3180 1850 l0 -41 51 3 c96 6 96 70 0 76 l-51 3 0 -41z"/>
</g>
</svg>
